<svg width="258" height="229" viewBox="0 0 258 229" fill="none" xmlns="http://www.w3.org/2000/svg">
<g clip-path="url(#clip0_2033_89)">
<path d="M86.2621 228.29C109.859 228.29 129.009 211.297 129.009 190.36V152.43H86.2621C62.6655 152.43 43.5146 169.422 43.5146 190.36C43.5146 211.297 62.6655 228.29 86.2621 228.29Z" fill="#0ACF83"/>
<path d="M43.5146 114.5C43.5146 93.5625 62.6655 76.5698 86.2621 76.5698H129.009V152.43H86.2621C62.6655 152.43 43.5146 135.437 43.5146 114.5Z" fill="#A259FF"/>
<path d="M43.5146 38.6396C43.5146 17.7022 62.6655 0.709473 86.2621 0.709473H129.009V76.5697H86.2621C62.6655 76.5697 43.5146 59.577 43.5146 38.6396Z" fill="#F24E1E"/>
<path d="M129.009 0.709473H171.757C195.353 0.709473 214.504 17.7022 214.504 38.6396C214.504 59.577 195.353 76.5697 171.757 76.5697H129.009V0.709473Z" fill="#FF7262"/>
<path d="M214.504 114.5C214.504 135.437 195.353 152.43 171.757 152.43C148.16 152.43 129.009 135.437 129.009 114.5C129.009 93.5625 148.16 76.5698 171.757 76.5698C195.353 76.5698 214.504 93.5625 214.504 114.5Z" fill="#1ABCFE"/>
</g>
<defs>
<clipPath id="clip0_2033_89">
<rect width="256.484" height="227.581" fill="white" transform="translate(0.76709 0.709473)"/>
</clipPath>
</defs>
</svg>
