<svg width="116" height="125" viewBox="0 0 116 125" fill="none" xmlns="http://www.w3.org/2000/svg">
<path d="M115.265 116.439C115.265 117.101 115.265 117.281 114.246 117.642C104.318 121.838 93.4571 124.017 82.4568 124.021C55.2862 124.021 36.1989 109.338 36.1989 79.3707C36.1989 53.7358 55.4221 33.6973 86.0569 33.6973H92.5099V4.81298C92.5099 4.52571 92.6387 4.2502 92.868 4.04707C93.0973 3.84394 93.4083 3.72982 93.7326 3.72982H113.431C114.382 3.72982 114.654 4.0307 114.654 4.63246V105.728C114.588 109.306 114.792 112.885 115.265 116.439ZM92.5099 51.3288C90.2136 50.5516 87.7668 50.1835 85.3097 50.2456C69.6187 50.2456 58.6825 60.9569 58.6825 78.7088C58.6825 98.988 69.8904 107.112 83.9512 107.112C86.8645 107.197 89.7695 106.788 92.5099 105.908V51.3288ZM0.0620117 2.10508C0.0620117 0.901563 0.401638 0.299805 1.48846 0.299805H20.6437C21.5947 0.299805 22.1381 0.781212 22.1381 2.10508V120.591C22.1381 121.795 22.1381 122.396 20.6437 122.396H1.76017C0.537497 122.396 0.197861 121.614 0.197861 120.411V2.10508H0.0620117Z" fill="black"/>
</svg>
