<svg width="182" height="208" viewBox="0 0 182 208" fill="none" xmlns="http://www.w3.org/2000/svg">
<path fill-rule="evenodd" clip-rule="evenodd" d="M1.80697 161.52C1.80697 161.52 28.4664 199.889 30.066 201.591C33.9316 205.698 39.1636 207.844 44.4954 207.511C72.3879 205.957 136.271 202.405 163.03 200.925C173.394 200.333 181.525 190.861 181.558 179.354L181.892 48.0013C181.892 40.6382 178.459 33.83 172.827 29.982C162.863 23.1738 143.135 9.66856 137.17 5.26547C132.305 1.6764 126.507 -0.0256323 120.642 0.381376C100.78 1.7874 42.496 5.96848 17.836 7.70752C7.97197 8.41053 0.374023 17.4017 0.374023 28.2059V156.894C0.374023 158.559 0.873888 160.188 1.80697 161.483V161.52ZM168.462 54.5504V54.6244L168.129 179.317C168.129 182.906 165.563 185.866 162.33 186.051L43.7956 192.637C42.1294 192.748 40.4965 192.045 39.2969 190.787C38.0972 189.529 37.3974 187.753 37.3974 185.903V62.1726C37.3974 58.5835 39.8967 55.6235 43.1292 55.4385L161.997 47.8163C163.663 47.7053 165.296 48.3713 166.529 49.6663C167.729 50.9244 168.429 52.7004 168.429 54.5504H168.462ZM128.539 133.806V83.041C126.44 80.377 123.108 80.562 118.309 78.9339C117.976 78.8229 117.676 78.5269 117.542 78.1569C117.409 77.7869 117.442 77.3429 117.642 77.0099C123.374 67.6487 139.736 73.4948 150.4 69.7577C150.7 69.6467 151.067 69.6837 151.333 69.9427C151.6 70.2018 151.7 70.5718 151.633 70.9418C150.6 76.0849 146.968 78.7119 141.803 79.8219V163.333C141.803 166.108 140.303 168.661 137.97 169.697C135.837 170.659 133.605 171.695 133.605 171.695C128.473 174.655 122.174 172.768 119.042 167.366L80.8523 101.245V161.446C82.9184 164.11 86.2842 163.925 91.0829 165.553C91.4161 165.664 91.716 165.96 91.8493 166.33C91.9826 166.7 91.9493 167.144 91.7494 167.477C85.9842 176.838 69.6553 170.992 58.9915 174.729C58.6916 174.877 58.325 174.803 58.0585 174.544C57.7919 174.322 57.6919 173.915 57.7585 173.545C58.7916 168.402 62.4239 165.775 67.5892 164.665V85.8161L57.5253 84.743C57.5253 84.743 58.2251 75.6779 67.8225 74.6418C72.5545 74.1238 84.9179 73.5318 89.3833 73.3098C90.3831 73.2728 91.3495 73.7908 91.9493 74.7158L128.573 133.732L128.539 133.806ZM34.5648 38.3811C36.3976 39.9352 38.697 40.7122 40.9964 40.5642C57.9585 39.4911 130.372 34.9031 148.334 33.756C148.901 33.719 149.367 33.275 149.5 32.683C149.634 32.091 149.4 31.462 148.934 31.129C140.969 25.6159 133.138 20.2138 129.739 17.6977C127.306 15.9217 124.407 15.0707 121.475 15.2557C121.475 15.2557 39.1636 20.2878 22.2348 22.3228C20.102 22.5818 19.6355 23.4328 19.5688 23.7658C19.2689 24.9129 19.6355 25.7639 20.4686 26.5039C23.8677 29.3899 30.6992 35.1251 34.5648 38.3811Z" fill="#070707"/>
</svg>
