<svg width="311" height="299" viewBox="0 0 311 299" fill="none" xmlns="http://www.w3.org/2000/svg">
<path d="M206.732 18.9268H104.883C58.0088 18.9268 20.0095 55.4641 20.0095 100.535V198.465C20.0095 243.536 58.0088 280.074 104.883 280.074H206.732C253.606 280.074 291.605 243.536 291.605 198.465V100.535C291.605 55.4641 253.606 18.9268 206.732 18.9268Z" fill="#EEEEEE"/>
<path d="M192.192 85.1303C192.192 80.7386 187.079 80.7385 184.805 81.2875C187.987 78.8721 191.719 79.4577 193.044 80.1896L223.772 94.6769C226.7 96.0572 228.558 98.9295 228.558 102.077V197.382C228.558 200.572 226.65 203.474 223.663 204.832L194.749 217.978C192.76 218.801 188.441 220.833 184.805 217.978C189.351 218.802 191.813 215.691 192.192 213.586V85.1303Z" fill="url(#paint0_linear_2033_114)"/>
<path d="M185.174 81.2082C187.585 80.7498 192.192 80.9625 192.192 85.1302V117.935L99.03 185.7C97.4016 186.885 95.1099 186.689 93.723 185.246L84.1214 175.256C82.6172 173.691 82.7225 171.241 84.3557 169.802L184.804 81.2874L185.174 81.2082Z" fill="url(#paint1_linear_2033_114)"/>
<path d="M192.192 181.33L99.03 113.564C97.4016 112.379 95.1099 112.576 93.723 114.019L84.1214 124.009C82.6172 125.574 82.7225 128.024 84.3557 129.463L184.804 217.978C189.35 218.801 191.812 215.69 192.192 213.586V181.33Z" fill="url(#paint2_linear_2033_114)"/>
<defs>
<linearGradient id="paint0_linear_2033_114" x1="206.681" y1="79.5503" x2="206.681" y2="219.45" gradientUnits="userSpaceOnUse">
<stop stop-color="#32B5F1"/>
<stop offset="1" stop-color="#2B9FED"/>
</linearGradient>
<linearGradient id="paint1_linear_2033_114" x1="192.192" y1="97.2066" x2="91.7567" y2="184.885" gradientUnits="userSpaceOnUse">
<stop stop-color="#0F6FB3"/>
<stop offset="0.271" stop-color="#1279B7"/>
<stop offset="0.421" stop-color="#1176B5"/>
<stop offset="0.618" stop-color="#0E69AC"/>
<stop offset="0.855" stop-color="#0F70AF"/>
<stop offset="1" stop-color="#0F6DAD"/>
</linearGradient>
<linearGradient id="paint2_linear_2033_114" x1="89.0616" y1="119.439" x2="189.266" y2="205.728" gradientUnits="userSpaceOnUse">
<stop stop-color="#1791D2"/>
<stop offset="1" stop-color="#1173C5"/>
</linearGradient>
</defs>
</svg>
